<?xml version="1.0" encoding="UTF-8"?>
<svg xmlns="http://www.w3.org/2000/svg" xmlns:xlink="http://www.w3.org/1999/xlink" width="150px" height="80px" viewBox="0 0 150 80" version="1.1">
<g id="surface1">
<path style=" stroke:none;fill-rule:nonzero;fill:rgb(0%,0%,0%);fill-opacity:1;" d="M 31.980469 39.117188 L 45.046875 32.148438 L 18.914062 32.148438 Z M 3.421875 23.882812 L 16.570312 30.898438 L 45.175781 30.898438 L 32.015625 23.882812 Z M 33.636719 39.996094 L 47.9375 32.371094 L 62.175781 39.960938 L 47.875 47.589844 Z M 62.203125 38.210938 L 62.203125 23.882812 L 35.332031 23.882812 Z M 30.316406 40 L 1.757812 24.769531 L 1.757812 55.230469 Z M 49.535156 48.476562 L 62.203125 55.230469 L 62.203125 41.71875 Z M 31.980469 40.886719 L 3.421875 56.117188 L 60.539062 56.117188 Z M 73.523438 31.386719 L 93.09375 31.386719 L 93.09375 33.320312 L 77.859375 33.320312 L 77.859375 39.007812 L 90.75 39.007812 L 90.75 40.96875 L 77.859375 40.96875 L 77.859375 47.542969 L 93.609375 47.542969 L 93.609375 49.5 L 73.523438 49.5 Z M 100.289062 29.835938 L 104.53125 29.835938 L 104.53125 46.960938 C 104.53125 47.679688 105.105469 47.957031 105.703125 47.957031 C 106.019531 47.960938 106.335938 47.941406 106.640625 47.898438 L 107.214844 49.613281 C 106.441406 49.777344 105.609375 49.855469 104.777344 49.832031 C 101.566406 49.832031 100.277344 48.757812 100.277344 46.792969 Z M 113.496094 36.082031 L 117.011719 36.082031 L 117.375 38.011719 L 117.527344 38.011719 C 119.707031 36.761719 122.34375 35.75 125.34375 35.75 C 129.175781 35.75 131.203125 36.71875 132.28125 38.320312 C 134.917969 36.800781 137.507812 35.75 140.566406 35.75 C 145.746094 35.75 148.230469 37.574219 148.230469 40.992188 L 148.230469 49.5 L 143.988281 49.5 L 143.988281 41.300781 C 143.988281 38.800781 142.488281 37.710938 139.300781 37.710938 C 137.332031 37.710938 135.316406 38.40625 132.984375 39.78125 L 132.984375 49.5 L 128.742188 49.5 L 128.742188 41.300781 C 128.742188 38.800781 127.242188 37.710938 124.054688 37.710938 C 122.191406 37.710938 120.070312 38.40625 117.738281 39.78125 L 117.738281 49.5 L 113.496094 49.5 Z M 113.496094 36.082031 "/>
</g>
</svg>
